<mxfile host="65bd71144e">
    <diagram id="v-Bxlj7C6kydAPu7pnH4" name="Page-1">
        <mxGraphModel dx="474" dy="449" grid="1" gridSize="10" guides="1" tooltips="1" connect="1" arrows="1" fold="1" page="1" pageScale="1" pageWidth="827" pageHeight="1169" math="0" shadow="0">
            <root>
                <mxCell id="0"/>
                <mxCell id="1" parent="0"/>
                <mxCell id="4" value="配置管理（CM）系统" style="swimlane;" vertex="1" parent="1">
                    <mxGeometry x="50" y="50" width="320" height="230" as="geometry"/>
                </mxCell>
                <mxCell id="2" value="CM工具&lt;br&gt;&lt;br&gt;" style="rounded=0;whiteSpace=wrap;html=1;" vertex="1" parent="4">
                    <mxGeometry x="20" y="48" width="100" height="90" as="geometry"/>
                </mxCell>
                <mxCell id="18" style="edgeStyle=none;html=1;exitX=0.75;exitY=0;exitDx=0;exitDy=0;entryX=1;entryY=0.25;entryDx=0;entryDy=0;endArrow=classic;endFill=1;" edge="1" parent="4" source="6" target="2">
                    <mxGeometry relative="1" as="geometry">
                        <Array as="points">
                            <mxPoint x="265" y="71"/>
                        </Array>
                    </mxGeometry>
                </mxCell>
                <mxCell id="6" value="&lt;br&gt;&lt;br&gt;CM程序" style="rounded=0;whiteSpace=wrap;html=1;" vertex="1" parent="4">
                    <mxGeometry x="190" y="128" width="100" height="90" as="geometry"/>
                </mxCell>
                <mxCell id="10" value="&lt;span&gt;工具文档&lt;/span&gt;" style="rounded=0;whiteSpace=wrap;html=1;" vertex="1" parent="4">
                    <mxGeometry x="60" y="108" width="60" height="30" as="geometry"/>
                </mxCell>
                <mxCell id="11" value="&lt;span&gt;处理文档&lt;/span&gt;" style="rounded=0;whiteSpace=wrap;html=1;" vertex="1" parent="4">
                    <mxGeometry x="190" y="128" width="60" height="30" as="geometry"/>
                </mxCell>
                <mxCell id="16" value="CM使用文档" style="text;html=1;strokeColor=none;fillColor=none;align=center;verticalAlign=middle;whiteSpace=wrap;rounded=0;" vertex="1" parent="4">
                    <mxGeometry x="130" y="104" width="80" height="30" as="geometry"/>
                </mxCell>
                <mxCell id="19" value="CM系统" style="text;html=1;strokeColor=none;fillColor=none;align=center;verticalAlign=middle;whiteSpace=wrap;rounded=0;" vertex="1" parent="4">
                    <mxGeometry x="130" y="78" width="80" height="30" as="geometry"/>
                </mxCell>
                <mxCell id="20" value="" style="rounded=0;whiteSpace=wrap;html=1;fillColor=none;" vertex="1" parent="4">
                    <mxGeometry x="60" y="108" width="190" height="50" as="geometry"/>
                </mxCell>
                <mxCell id="21" value="" style="ellipse;whiteSpace=wrap;html=1;fillColor=none;strokeColor=default;dashed=1;" vertex="1" parent="4">
                    <mxGeometry x="87.5" y="30" width="145" height="145" as="geometry"/>
                </mxCell>
                <mxCell id="22" value="" style="endArrow=classic;html=1;" edge="1" parent="4">
                    <mxGeometry width="50" height="50" relative="1" as="geometry">
                        <mxPoint x="210" y="48" as="sourcePoint"/>
                        <mxPoint x="380" y="48" as="targetPoint"/>
                    </mxGeometry>
                </mxCell>
                <mxCell id="23" value="使用" style="text;html=1;strokeColor=none;fillColor=none;align=center;verticalAlign=middle;whiteSpace=wrap;rounded=0;dashed=1;" vertex="1" parent="4">
                    <mxGeometry x="260" y="98" width="50" height="30" as="geometry"/>
                </mxCell>
                <mxCell id="25" value="CM输出" style="swimlane;" vertex="1" parent="1">
                    <mxGeometry x="50" y="340" width="320" height="180" as="geometry"/>
                </mxCell>
                <mxCell id="26" value="CM输出文档&lt;br&gt;&lt;br&gt;&lt;br&gt;&lt;br&gt;&lt;br&gt;" style="rounded=0;whiteSpace=wrap;html=1;" vertex="1" parent="25">
                    <mxGeometry x="8" y="48" width="220" height="112" as="geometry"/>
                </mxCell>
                <mxCell id="29" value="&lt;span&gt;CM计划&lt;/span&gt;" style="rounded=0;whiteSpace=wrap;html=1;" vertex="1" parent="25">
                    <mxGeometry x="17" y="100" width="60" height="30" as="geometry"/>
                </mxCell>
                <mxCell id="38" value="&lt;span&gt;CM系统记录&lt;/span&gt;" style="rounded=0;whiteSpace=wrap;html=1;" vertex="1" parent="25">
                    <mxGeometry x="87" y="100" width="60" height="30" as="geometry"/>
                </mxCell>
                <mxCell id="39" value="&lt;span&gt;配置列表&lt;/span&gt;" style="rounded=0;whiteSpace=wrap;html=1;" vertex="1" parent="25">
                    <mxGeometry x="157" y="100" width="60" height="30" as="geometry"/>
                </mxCell>
                <mxCell id="42" style="edgeStyle=none;html=1;exitX=0.5;exitY=1;exitDx=0;exitDy=0;entryX=1.009;entryY=0.911;entryDx=0;entryDy=0;entryPerimeter=0;endArrow=classic;endFill=1;" edge="1" parent="25" source="40" target="26">
                    <mxGeometry relative="1" as="geometry">
                        <Array as="points">
                            <mxPoint x="274" y="150"/>
                        </Array>
                    </mxGeometry>
                </mxCell>
                <mxCell id="40" value="行动&lt;br&gt;&lt;br&gt;" style="rounded=0;whiteSpace=wrap;html=1;" vertex="1" parent="25">
                    <mxGeometry x="240" y="48" width="67" height="90" as="geometry"/>
                </mxCell>
                <mxCell id="41" value="手工CM控制方法" style="rounded=0;whiteSpace=wrap;html=1;" vertex="1" parent="25">
                    <mxGeometry x="247" y="100" width="53" height="30" as="geometry"/>
                </mxCell>
                <mxCell id="43" value="使用" style="text;html=1;strokeColor=none;fillColor=none;align=center;verticalAlign=middle;whiteSpace=wrap;rounded=0;dashed=1;" vertex="1" parent="25">
                    <mxGeometry x="230" y="150" width="50" height="30" as="geometry"/>
                </mxCell>
                <mxCell id="44" value="CM文档 =&amp;nbsp; CM 使用文档+ CM输出文档" style="text;html=1;strokeColor=none;fillColor=none;align=center;verticalAlign=middle;whiteSpace=wrap;rounded=0;dashed=1;" vertex="1" parent="1">
                    <mxGeometry x="80" y="530" width="250" height="30" as="geometry"/>
                </mxCell>
            </root>
        </mxGraphModel>
    </diagram>
</mxfile>